<svg id="svg" version="1.1" xmlns="http://www.w3.org/2000/svg" xmlns:xlink="http://www.w3.org/1999/xlink" width="400" height="400" viewBox="0, 0, 400,400"><g id="svgg"><path id="path0" d="M193.590 5.183 C 193.577 5.957,189.902 9.600,189.135 9.600 C 188.767 9.600,188.572 10.022,188.582 10.796 C 188.595 11.726,188.746 11.944,189.265 11.779 C 189.632 11.663,190.066 11.783,190.228 12.046 C 190.406 12.333,190.354 12.419,190.099 12.261 C 189.865 12.117,189.252 12.167,188.737 12.374 C 188.222 12.580,188.059 12.761,188.376 12.775 C 188.795 12.793,188.742 12.955,188.181 13.365 C 187.756 13.675,187.298 13.860,187.162 13.777 C 187.027 13.693,187.001 14.069,187.104 14.612 C 187.244 15.345,187.120 15.600,186.623 15.600 C 186.189 15.600,186.062 15.424,186.262 15.100 C 186.432 14.825,186.516 14.085,186.450 13.455 C 186.363 12.625,186.467 12.394,186.827 12.617 C 187.154 12.819,187.222 12.760,187.026 12.443 C 186.815 12.101,186.436 12.255,185.716 12.975 C 185.159 13.532,184.545 13.890,184.352 13.770 C 183.775 13.414,183.953 14.085,184.635 14.838 C 185.293 15.566,184.740 15.715,183.728 15.082 C 183.206 14.756,182.663 15.330,183.089 15.756 C 183.790 16.457,183.554 17.282,182.838 16.635 C 182.085 15.953,181.414 15.775,181.770 16.352 C 181.890 16.545,181.532 17.159,180.975 17.716 C 180.255 18.436,180.101 18.815,180.443 19.026 C 180.760 19.222,180.819 19.154,180.617 18.827 C 180.394 18.467,180.625 18.363,181.455 18.450 C 182.085 18.516,182.825 18.432,183.100 18.262 C 183.424 18.062,183.600 18.189,183.600 18.623 C 183.600 19.109,183.344 19.244,182.667 19.115 C 182.080 19.003,181.733 19.128,181.733 19.451 C 181.733 19.733,181.911 19.855,182.128 19.721 C 182.357 19.579,182.396 19.682,182.221 19.965 C 182.055 20.234,181.698 20.370,181.428 20.266 C 181.159 20.163,180.085 20.510,179.042 21.039 C 176.774 22.189,176.800 22.186,176.800 21.286 C 176.800 20.843,176.502 20.571,176.016 20.571 C 175.346 20.571,175.309 20.661,175.763 21.186 C 176.478 22.011,176.147 22.764,175.181 22.511 C 174.644 22.371,174.400 22.509,174.400 22.953 C 174.400 23.309,174.209 23.600,173.976 23.600 C 173.743 23.600,173.664 23.420,173.800 23.200 C 173.936 22.980,173.786 22.800,173.466 22.800 C 173.147 22.800,172.786 23.061,172.663 23.380 C 172.507 23.787,172.633 23.886,173.086 23.712 C 173.550 23.533,173.639 23.613,173.404 23.994 C 173.187 24.345,173.231 24.428,173.535 24.240 C 174.340 23.743,175.226 24.500,174.559 25.116 C 174.103 25.537,173.998 25.537,173.987 25.116 C 173.979 24.832,173.617 25.028,173.181 25.552 C 172.457 26.420,172.445 26.545,173.038 26.979 C 173.634 27.414,173.628 27.515,172.962 28.181 C 172.468 28.675,172.185 28.754,172.076 28.429 C 171.965 28.095,171.692 28.155,171.168 28.629 C 170.756 29.002,170.515 29.463,170.633 29.653 C 170.751 29.844,170.636 30.000,170.377 30.000 C 170.112 30.000,169.993 29.669,170.105 29.243 C 170.397 28.127,169.118 28.441,168.506 29.636 C 168.219 30.195,168.007 30.348,168.000 30.000 C 167.990 29.503,167.928 29.495,167.639 29.951 C 167.219 30.614,166.268 30.148,166.662 29.472 C 166.814 29.213,166.577 29.315,166.137 29.700 C 165.697 30.085,165.137 30.400,164.892 30.400 C 164.647 30.400,164.346 30.563,164.223 30.763 C 164.100 30.962,164.359 31.031,164.799 30.916 C 165.265 30.794,165.600 30.904,165.600 31.177 C 165.600 31.436,165.439 31.548,165.242 31.426 C 165.045 31.304,164.784 31.464,164.662 31.782 C 164.515 32.167,164.634 32.285,165.020 32.137 C 165.339 32.014,165.600 32.114,165.600 32.357 C 165.600 32.601,165.439 32.800,165.243 32.800 C 165.046 32.800,164.786 33.061,164.663 33.380 C 164.515 33.767,164.633 33.885,165.020 33.737 C 165.803 33.436,165.756 33.997,164.949 34.588 C 164.444 34.957,164.393 35.240,164.721 35.853 C 164.974 36.325,165.003 36.872,164.793 37.212 C 164.515 37.661,164.358 37.572,164.046 36.790 C 163.666 35.839,163.559 35.852,163.450 36.867 C 163.423 37.123,163.150 37.417,162.844 37.519 C 162.507 37.631,162.398 37.526,162.568 37.252 C 162.730 36.990,162.585 36.800,162.224 36.800 C 161.881 36.800,161.600 36.659,161.600 36.486 C 161.600 36.313,161.253 36.171,160.829 36.171 C 160.406 36.171,160.146 36.313,160.253 36.486 C 160.360 36.659,160.717 36.800,161.047 36.800 C 161.377 36.800,161.536 36.980,161.400 37.200 C 161.264 37.420,161.354 37.600,161.600 37.600 C 161.846 37.600,161.936 37.780,161.800 38.000 C 161.448 38.570,160.781 38.496,160.900 37.900 C 160.955 37.625,160.775 37.445,160.500 37.500 C 160.225 37.555,160.000 37.390,160.000 37.133 C 160.000 36.877,159.884 36.782,159.743 36.924 C 159.602 37.065,159.702 37.441,159.966 37.759 C 160.372 38.248,160.252 38.307,159.195 38.140 C 157.987 37.950,157.950 37.987,158.140 39.195 C 158.307 40.252,158.248 40.372,157.759 39.966 C 157.441 39.702,157.065 39.602,156.924 39.743 C 156.782 39.884,156.877 40.000,157.133 40.000 C 157.390 40.000,157.555 40.225,157.500 40.500 C 157.445 40.775,157.625 40.955,157.900 40.900 C 158.496 40.781,158.570 41.448,158.000 41.800 C 157.780 41.936,157.600 41.846,157.600 41.600 C 157.600 41.354,157.420 41.264,157.200 41.400 C 156.980 41.536,156.800 41.377,156.800 41.047 C 156.800 40.717,156.659 40.360,156.486 40.253 C 156.313 40.146,156.171 40.406,156.171 40.829 C 156.171 41.253,156.313 41.600,156.486 41.600 C 156.659 41.600,156.800 41.881,156.800 42.224 C 156.800 42.585,156.990 42.730,157.252 42.568 C 157.526 42.398,157.631 42.507,157.519 42.844 C 157.417 43.150,157.078 43.400,156.767 43.401 C 156.455 43.402,156.176 43.672,156.146 44.001 C 156.117 44.330,156.072 44.771,156.046 44.980 C 156.021 45.189,155.784 45.144,155.520 44.880 C 154.730 44.090,154.338 44.336,154.851 45.300 C 155.269 46.085,155.254 46.136,154.729 45.703 C 154.397 45.430,153.979 45.340,153.799 45.503 C 153.619 45.667,153.594 45.587,153.742 45.328 C 153.891 45.068,153.830 44.742,153.607 44.604 C 153.383 44.466,153.200 44.648,153.200 45.010 C 153.200 45.371,152.975 45.584,152.700 45.483 C 152.425 45.383,152.258 45.053,152.329 44.750 C 152.427 44.328,152.346 44.310,151.980 44.669 C 151.717 44.927,151.254 45.042,150.951 44.926 C 150.648 44.810,150.400 44.914,150.400 45.157 C 150.400 45.401,150.535 45.579,150.700 45.553 C 151.374 45.446,152.000 45.619,152.000 45.911 C 152.000 46.083,151.235 46.191,150.300 46.152 C 149.365 46.112,148.833 46.170,149.117 46.279 C 149.539 46.441,149.539 46.599,149.117 47.139 C 148.676 47.703,148.688 47.736,149.200 47.365 C 149.842 46.900,151.846 47.620,151.334 48.132 C 151.191 48.276,150.832 48.193,150.537 47.948 C 150.142 47.620,150.000 47.621,150.000 47.951 C 150.000 48.198,149.865 48.379,149.700 48.353 C 148.186 48.114,147.964 49.162,149.271 50.380 C 149.750 50.826,150.020 51.313,149.871 51.462 C 149.722 51.611,149.600 51.523,149.600 51.267 C 149.600 50.415,148.858 50.784,148.728 51.700 C 148.622 52.443,148.336 52.607,147.087 52.641 C 146.110 52.668,145.382 52.946,145.031 53.425 C 144.566 54.061,144.336 54.099,143.444 53.693 C 142.870 53.431,142.400 53.374,142.400 53.566 C 142.400 53.758,142.670 54.018,143.000 54.145 C 143.680 54.406,143.825 55.600,143.176 55.600 C 142.943 55.600,142.856 55.432,142.983 55.228 C 143.109 55.023,143.030 54.742,142.807 54.604 C 142.451 54.384,142.237 54.866,142.338 55.657 C 142.357 55.798,142.018 56.007,141.586 56.120 C 140.639 56.367,140.593 56.150,141.419 55.324 C 142.190 54.553,141.842 54.101,141.010 54.792 C 140.134 55.518,140.259 56.670,141.240 56.926 C 141.711 57.050,141.963 57.337,141.813 57.580 C 141.665 57.818,141.415 57.933,141.255 57.834 C 141.096 57.736,140.940 58.007,140.907 58.436 C 140.875 58.866,141.018 59.113,141.224 58.985 C 141.431 58.857,141.600 58.924,141.600 59.134 C 141.600 59.343,141.330 59.618,141.000 59.745 C 140.670 59.871,140.400 60.229,140.400 60.538 C 140.400 60.848,140.095 61.349,139.723 61.651 C 139.263 62.024,139.143 62.040,139.347 61.700 C 139.525 61.404,139.434 61.189,139.124 61.172 C 138.836 61.156,138.960 60.989,139.400 60.800 C 140.016 60.535,140.050 60.450,139.549 60.428 C 139.191 60.413,138.609 60.805,138.257 61.300 C 137.905 61.795,137.707 61.924,137.818 61.586 C 137.955 61.168,137.758 60.971,137.200 60.971 C 136.696 60.971,136.456 61.170,136.578 61.486 C 136.686 61.769,136.526 62.000,136.221 62.000 C 135.916 62.000,135.583 61.775,135.480 61.500 C 135.353 61.158,134.994 61.303,134.347 61.955 C 133.826 62.480,133.625 62.785,133.900 62.631 C 134.516 62.288,134.552 63.172,133.956 64.000 C 133.592 64.506,133.560 64.491,133.750 63.900 C 133.928 63.346,133.748 63.206,132.887 63.228 C 132.150 63.247,131.999 63.344,132.418 63.528 C 132.759 63.678,133.041 64.250,133.047 64.800 C 133.053 65.390,133.262 65.755,133.558 65.690 C 133.834 65.630,133.950 65.757,133.817 65.973 C 133.684 66.188,133.265 66.269,132.887 66.152 C 132.238 65.951,132.238 65.964,132.887 66.383 C 134.559 67.460,130.259 69.395,128.402 68.401 C 127.563 67.952,126.617 68.546,126.919 69.332 C 127.095 69.791,126.933 69.906,126.277 69.788 C 125.409 69.632,125.408 69.637,126.200 70.265 C 126.990 70.892,126.989 70.897,126.115 70.691 C 125.140 70.461,124.064 71.345,124.781 71.788 C 125.011 71.931,125.200 72.227,125.200 72.447 C 125.200 72.667,125.036 72.746,124.835 72.622 C 124.634 72.498,124.531 72.712,124.605 73.098 C 124.678 73.484,124.753 73.946,124.769 74.124 C 124.786 74.302,125.008 74.319,125.262 74.162 C 125.550 73.984,125.615 74.052,125.434 74.345 C 125.275 74.602,124.977 74.709,124.772 74.583 C 124.568 74.456,124.400 74.717,124.400 75.162 C 124.400 76.028,123.042 76.997,122.392 76.595 C 122.176 76.462,122.000 76.633,122.000 76.976 C 122.000 77.319,121.826 77.600,121.613 77.600 C 121.399 77.600,121.329 77.330,121.455 77.000 C 121.582 76.670,121.486 76.400,121.243 76.400 C 120.999 76.400,120.797 76.625,120.794 76.900 C 120.790 77.233,120.658 77.200,120.400 76.800 C 120.078 76.302,120.010 76.336,120.000 77.000 C 119.993 77.440,119.803 78.070,119.577 78.400 C 119.212 78.933,119.174 78.933,119.231 78.400 C 119.368 77.118,119.185 75.962,118.875 76.153 C 118.697 76.264,118.588 76.882,118.632 77.528 C 118.698 78.476,118.576 78.667,118.002 78.516 C 117.042 78.265,116.606 79.081,117.266 79.892 C 117.730 80.464,117.706 80.514,117.079 80.279 C 116.676 80.128,116.459 80.171,116.586 80.377 C 116.711 80.579,116.630 80.858,116.407 80.996 C 115.784 81.381,115.919 82.406,116.560 82.160 C 116.867 82.042,117.238 82.138,117.383 82.373 C 117.529 82.610,117.354 82.800,116.990 82.800 C 116.629 82.800,116.408 83.023,116.499 83.296 C 116.776 84.127,115.676 84.961,115.021 84.418 C 114.587 84.057,114.372 84.115,114.044 84.678 C 113.813 85.075,113.619 85.197,113.612 84.949 C 113.596 84.351,111.192 84.566,110.800 85.200 C 110.567 85.577,110.443 85.565,110.264 85.145 C 110.136 84.845,110.122 85.050,110.233 85.600 C 110.390 86.380,110.188 86.752,109.317 87.289 C 108.362 87.879,108.316 87.981,109.000 87.995 C 109.664 88.009,109.698 88.078,109.200 88.400 C 108.667 88.745,108.667 88.789,109.200 88.800 C 109.702 88.810,109.709 88.870,109.242 89.166 C 108.925 89.366,108.793 89.806,108.937 90.180 C 109.077 90.544,109.033 90.744,108.841 90.625 C 108.648 90.506,108.400 90.758,108.288 91.185 C 108.176 91.612,108.213 92.015,108.370 92.081 C 108.527 92.146,108.479 93.892,108.265 95.959 C 107.905 99.414,107.934 99.762,108.613 100.259 C 109.020 100.557,109.144 100.800,108.889 100.800 C 108.621 100.800,108.533 101.081,108.681 101.466 C 108.851 101.910,108.782 102.036,108.473 101.845 C 108.170 101.658,108.092 101.773,108.246 102.177 C 108.377 102.517,108.663 102.685,108.882 102.549 C 109.101 102.414,109.056 102.722,108.783 103.233 C 108.434 103.884,108.416 104.205,108.723 104.308 C 109.017 104.406,109.039 104.771,108.791 105.423 C 108.402 106.447,108.641 107.600,109.243 107.600 C 109.780 107.600,109.672 106.896,109.100 106.665 C 108.801 106.544,108.882 106.450,109.300 106.432 C 109.758 106.411,110.014 106.711,110.040 107.300 C 110.078 108.163,110.093 108.159,110.400 107.200 C 110.637 106.459,110.731 106.393,110.760 106.943 C 110.786 107.416,111.008 107.606,111.374 107.465 C 111.690 107.344,112.036 107.460,112.143 107.722 C 112.251 107.990,112.351 107.902,112.368 107.524 C 112.386 107.152,112.578 106.737,112.795 106.603 C 113.031 106.457,113.084 106.638,112.926 107.049 C 112.726 107.570,112.819 107.678,113.305 107.492 C 113.659 107.356,114.036 107.460,114.143 107.722 C 114.281 108.063,114.346 108.049,114.368 107.676 C 114.386 107.388,114.600 107.276,114.845 107.428 C 115.089 107.579,115.447 107.454,115.639 107.151 C 115.911 106.722,115.989 106.764,115.994 107.341 C 115.999 108.012,116.253 108.058,118.700 107.839 C 120.185 107.705,122.390 107.555,123.600 107.506 C 124.810 107.456,125.932 107.232,126.094 107.008 C 126.259 106.779,126.403 106.950,126.422 107.400 C 126.454 108.157,126.472 108.159,126.751 107.451 C 127.020 106.765,127.099 106.756,127.684 107.341 C 128.193 107.850,128.364 107.871,128.527 107.445 C 128.884 106.515,130.517 106.311,130.277 107.227 C 129.956 108.455,130.399 108.123,130.864 106.787 C 131.177 105.891,131.416 105.681,131.780 105.984 C 132.453 106.542,132.855 106.050,132.408 105.214 C 132.104 104.646,132.235 104.533,133.200 104.533 C 134.224 104.533,134.309 104.623,133.938 105.315 C 133.638 105.876,133.644 106.020,133.960 105.825 C 134.245 105.648,134.400 106.007,134.400 106.843 C 134.400 108.854,134.779 107.979,134.863 105.776 C 134.956 103.317,135.317 102.956,137.776 102.863 C 139.979 102.779,140.854 102.400,138.843 102.400 C 138.007 102.400,137.648 102.245,137.825 101.960 C 138.021 101.642,137.874 101.639,137.296 101.949 C 136.435 102.409,136.152 100.475,136.970 99.728 C 137.171 99.544,137.213 99.601,137.066 99.858 C 136.727 100.452,137.887 100.906,138.249 100.321 C 138.415 100.052,138.341 99.989,138.062 100.162 C 137.422 100.557,137.506 99.958,138.224 99.008 C 138.809 98.235,138.821 98.238,138.712 99.164 C 138.650 99.685,138.825 100.192,139.100 100.289 C 139.415 100.401,139.600 100.093,139.600 99.457 C 139.600 98.902,139.783 98.334,140.007 98.196 C 140.230 98.058,140.307 97.773,140.177 97.562 C 139.870 97.067,140.896 97.276,141.338 97.800 C 141.534 98.033,141.581 97.907,141.450 97.500 C 141.195 96.706,141.811 96.533,142.163 97.300 C 142.289 97.575,142.292 97.395,142.169 96.900 C 142.043 96.389,142.131 96.000,142.373 96.000 C 142.608 96.000,142.800 96.191,142.800 96.424 C 142.800 96.657,142.995 96.727,143.233 96.580 C 143.491 96.420,143.633 96.612,143.586 97.056 C 143.543 97.465,143.557 98.340,143.617 99.000 C 143.696 99.870,143.791 99.650,143.963 98.200 L 144.200 96.200 146.200 95.963 C 147.650 95.791,147.870 95.696,147.000 95.617 C 146.340 95.557,145.465 95.543,145.056 95.586 C 144.612 95.633,144.420 95.491,144.580 95.233 C 144.727 94.995,144.657 94.800,144.424 94.800 C 144.191 94.800,144.000 94.608,144.000 94.373 C 144.000 94.131,144.389 94.043,144.900 94.169 C 145.395 94.292,145.575 94.289,145.300 94.163 C 145.025 94.037,144.800 93.774,144.800 93.579 C 144.800 93.384,145.025 93.280,145.300 93.347 C 145.575 93.414,145.657 93.391,145.483 93.296 C 145.309 93.200,145.376 92.870,145.632 92.561 C 145.990 92.130,145.971 91.843,145.549 91.323 C 145.123 90.798,145.118 90.718,145.527 90.963 C 145.880 91.176,146.125 91.008,146.270 90.455 C 146.454 89.749,146.567 89.710,147.043 90.186 C 147.754 90.897,147.749 91.200,147.025 91.200 C 146.700 91.200,146.475 91.542,146.509 91.986 C 146.563 92.705,146.627 92.718,147.259 92.147 C 147.639 91.803,148.141 91.640,148.375 91.784 C 148.651 91.955,148.800 91.410,148.800 90.224 C 148.800 88.348,149.149 87.975,149.973 88.968 C 150.345 89.416,150.292 89.628,149.722 89.978 C 149.047 90.391,149.052 90.413,149.800 90.310 C 150.392 90.229,150.577 90.408,150.512 91.000 C 150.463 91.440,150.523 91.574,150.646 91.298 C 150.768 91.021,151.033 90.897,151.234 91.021 C 151.435 91.145,151.600 90.967,151.600 90.624 C 151.600 90.281,151.825 89.997,152.100 89.994 C 152.457 89.989,152.441 89.887,152.042 89.634 C 151.731 89.437,151.594 88.993,151.733 88.631 C 152.082 87.722,153.210 87.372,153.634 88.042 C 153.887 88.441,153.989 88.457,153.994 88.100 C 153.997 87.825,154.281 87.600,154.624 87.600 C 154.967 87.600,155.145 87.435,155.021 87.234 C 154.897 87.033,155.021 86.768,155.298 86.646 C 155.574 86.523,155.440 86.463,155.000 86.512 C 154.408 86.577,154.229 86.392,154.310 85.800 C 154.413 85.052,154.391 85.047,153.978 85.722 C 153.628 86.292,153.416 86.345,152.968 85.973 C 151.975 85.149,152.348 84.800,154.224 84.800 C 155.227 84.800,155.951 84.644,155.833 84.454 C 155.715 84.263,155.120 84.167,154.510 84.239 C 153.899 84.312,153.717 84.274,154.105 84.155 C 154.493 84.037,154.690 83.745,154.543 83.508 C 154.380 83.243,154.465 83.193,154.763 83.377 C 155.038 83.547,155.596 83.366,156.042 82.962 C 156.806 82.270,156.824 82.272,156.541 83.009 C 156.280 83.691,156.317 83.710,156.882 83.187 C 157.231 82.864,157.448 82.487,157.364 82.348 C 157.122 81.947,155.600 81.642,155.600 81.995 C 155.600 82.171,155.360 82.407,155.067 82.519 C 154.773 82.632,154.533 82.471,154.533 82.162 C 154.533 81.853,154.773 81.600,155.067 81.600 C 155.360 81.600,155.603 81.375,155.606 81.100 C 155.611 80.716,155.689 80.720,155.942 81.120 C 156.124 81.406,156.624 81.667,157.055 81.699 C 157.581 81.739,157.866 82.084,157.920 82.747 C 158.031 84.082,158.389 84.367,158.447 83.167 C 158.473 82.635,158.472 82.062,158.445 81.893 C 158.418 81.725,158.937 81.628,159.598 81.679 C 160.625 81.757,160.800 81.933,160.800 82.885 C 160.800 83.498,160.980 84.000,161.200 84.000 C 161.420 84.000,161.600 83.460,161.600 82.800 C 161.600 81.733,161.733 81.600,162.800 81.600 C 163.460 81.600,164.000 81.420,164.000 81.200 C 164.000 80.980,163.498 80.800,162.885 80.800 C 161.249 80.800,161.045 78.620,162.668 78.486 C 164.067 78.370,164.401 78.013,163.167 77.953 C 162.635 77.927,162.103 77.914,161.985 77.924 C 161.867 77.935,161.742 77.461,161.708 76.872 L 161.647 75.800 162.032 76.758 C 162.244 77.285,162.548 77.557,162.709 77.363 C 162.869 77.168,163.180 76.855,163.400 76.667 C 163.642 76.460,163.556 76.401,163.184 76.518 C 162.729 76.660,162.571 76.421,162.582 75.603 C 162.595 74.626,162.702 74.535,163.484 74.832 C 164.009 75.032,164.469 75.012,164.609 74.785 C 164.740 74.573,165.062 74.414,165.324 74.432 C 165.667 74.454,165.661 74.519,165.300 74.665 C 165.025 74.776,164.800 75.032,164.800 75.233 C 164.800 75.876,165.390 75.628,165.933 74.758 C 166.222 74.295,166.302 74.013,166.110 74.132 C 165.919 74.250,165.528 74.203,165.243 74.027 C 164.877 73.801,165.035 73.628,165.778 73.441 C 166.358 73.296,166.737 73.022,166.621 72.834 C 166.504 72.645,166.780 72.394,167.234 72.275 C 167.688 72.156,168.156 71.688,168.275 71.234 C 168.394 70.780,168.645 70.504,168.834 70.621 C 169.022 70.737,169.296 70.358,169.441 69.778 C 169.628 69.035,169.801 68.877,170.027 69.243 C 170.203 69.528,170.250 69.919,170.132 70.110 C 170.013 70.302,170.295 70.222,170.758 69.933 C 171.647 69.378,171.872 68.800,171.200 68.800 C 170.980 68.800,170.800 69.010,170.800 69.267 C 170.800 69.523,170.684 69.618,170.543 69.476 C 170.402 69.335,170.502 68.959,170.766 68.641 C 171.161 68.165,171.109 68.099,170.468 68.266 C 168.852 68.689,169.049 67.467,170.789 66.277 C 171.586 65.731,171.640 65.600,171.065 65.600 C 170.673 65.600,170.459 65.428,170.589 65.217 C 170.719 65.007,171.119 64.948,171.478 65.085 C 171.950 65.266,172.040 65.189,171.804 64.806 C 171.579 64.443,171.630 64.372,171.965 64.579 C 172.234 64.745,172.360 65.127,172.245 65.428 C 172.129 65.728,172.207 66.081,172.417 66.211 C 172.628 66.341,172.800 66.797,172.800 67.224 C 172.800 67.651,172.980 68.000,173.200 68.000 C 173.604 68.000,173.785 66.928,173.652 65.330 C 173.568 64.329,174.206 63.762,174.634 64.455 C 174.814 64.746,174.750 64.817,174.466 64.641 C 174.172 64.459,174.093 64.576,174.243 64.969 C 174.452 65.512,174.548 65.509,175.112 64.945 C 175.664 64.393,175.801 64.386,176.173 64.896 C 176.484 65.320,176.720 65.360,177.040 65.040 C 177.360 64.720,177.320 64.484,176.896 64.173 C 176.386 63.801,176.393 63.664,176.945 63.112 C 177.509 62.548,177.512 62.452,176.969 62.243 C 176.576 62.093,176.459 62.172,176.641 62.466 C 176.817 62.750,176.746 62.814,176.455 62.634 C 175.762 62.206,176.329 61.568,177.330 61.652 C 178.928 61.785,180.000 61.604,180.000 61.200 C 180.000 60.980,179.651 60.800,179.224 60.800 C 178.129 60.800,177.845 60.134,178.829 59.876 C 179.332 59.745,179.601 59.395,179.525 58.972 C 179.367 58.099,181.526 57.234,181.991 57.985 C 182.270 58.437,182.823 57.681,182.755 56.941 C 182.742 56.802,182.972 56.537,183.266 56.351 C 183.707 56.071,183.705 56.011,183.251 56.006 C 182.801 56.001,182.795 55.888,183.216 55.381 C 183.626 54.887,183.796 54.867,184.059 55.281 C 184.327 55.705,184.389 55.704,184.394 55.276 C 184.397 54.988,184.537 54.837,184.704 54.941 C 184.872 55.044,185.356 54.875,185.781 54.565 C 186.237 54.231,186.340 54.000,186.033 54.000 C 185.678 54.000,185.585 53.652,185.741 52.900 C 185.866 52.295,185.870 52.025,185.751 52.300 C 185.423 53.053,184.456 52.900,184.571 52.114 C 184.636 51.674,185.042 51.423,185.703 51.414 C 186.270 51.406,186.866 51.268,187.027 51.106 C 187.189 50.945,187.564 51.125,187.861 51.506 C 188.361 52.147,188.382 52.139,188.137 51.400 C 187.992 50.960,187.991 50.705,188.137 50.834 C 188.442 51.104,188.507 381.627,188.202 381.931 C 187.801 382.333,188.011 382.840,188.463 382.561 C 188.783 382.363,188.853 382.554,188.689 383.180 C 188.559 383.678,188.620 384.527,188.825 385.066 C 189.089 385.760,189.069 385.966,188.756 385.773 C 188.462 385.591,188.401 385.773,188.573 386.316 C 188.716 386.765,188.642 387.250,188.410 387.394 C 188.177 387.538,188.120 387.868,188.282 388.128 C 188.801 388.959,188.840 390.072,188.339 389.763 C 188.052 389.585,187.985 389.652,188.162 389.938 C 188.319 390.192,188.719 390.400,189.052 390.400 C 189.582 390.400,189.579 390.478,189.029 391.029 C 188.320 391.737,188.205 392.400,188.790 392.400 C 189.041 392.400,189.045 392.757,188.801 393.397 C 188.349 394.587,188.696 395.726,189.426 395.445 C 189.713 395.335,190.036 395.460,190.143 395.722 C 190.249 395.985,190.351 395.795,190.368 395.300 C 190.386 394.805,190.574 394.400,190.787 394.400 C 191.001 394.400,191.059 394.701,190.918 395.069 C 190.723 395.577,190.823 395.677,191.331 395.482 C 191.727 395.330,192.010 395.424,192.025 395.713 C 192.039 395.981,192.213 395.795,192.412 395.300 C 192.611 394.805,193.005 394.414,193.287 394.432 C 193.689 394.456,193.691 394.507,193.300 394.665 C 192.551 394.967,192.697 395.480,193.600 395.716 C 194.161 395.863,194.402 395.727,194.406 395.263 C 194.411 394.688,194.465 394.680,194.806 395.200 C 195.156 395.733,195.244 395.733,195.594 395.200 C 195.931 394.686,195.989 394.701,195.994 395.300 C 195.999 395.922,196.469 396.000,200.200 396.000 C 203.931 396.000,204.401 395.922,204.406 395.300 C 204.411 394.746,204.485 394.715,204.761 395.151 C 204.965 395.472,205.322 395.572,205.617 395.389 C 205.914 395.206,206.024 395.238,205.882 395.467 C 205.741 395.695,206.217 395.846,207.019 395.829 C 207.961 395.809,208.400 395.610,208.405 395.200 C 208.411 394.704,208.473 394.695,208.761 395.151 C 208.953 395.454,209.311 395.579,209.555 395.428 C 209.800 395.276,210.000 395.327,210.000 395.539 C 210.000 395.751,210.343 395.835,210.763 395.726 C 211.547 395.520,212.231 394.000,211.539 394.000 C 211.327 394.000,211.276 393.800,211.428 393.555 C 211.579 393.311,211.454 392.953,211.151 392.761 C 210.695 392.473,210.704 392.411,211.200 392.405 C 211.610 392.400,211.809 391.961,211.829 391.019 C 211.846 390.217,211.695 389.741,211.467 389.882 C 211.238 390.024,211.206 389.914,211.389 389.617 C 211.572 389.322,211.472 388.965,211.151 388.761 C 210.715 388.485,210.746 388.411,211.300 388.406 C 212.112 388.399,212.151 388.230,211.586 387.174 C 211.358 386.748,211.316 386.400,211.492 386.400 C 211.854 386.400,211.982 381.909,211.628 381.600 C 211.424 381.421,211.759 51.979,211.965 50.308 C 212.012 49.927,212.224 49.509,212.435 49.378 C 212.647 49.247,212.780 49.289,212.731 49.470 C 212.342 50.906,213.946 52.271,215.220 51.589 C 215.853 51.250,215.938 51.296,215.723 51.856 C 215.556 52.292,215.620 52.435,215.904 52.259 C 216.147 52.109,216.452 52.160,216.583 52.373 C 216.714 52.585,216.474 52.691,216.049 52.610 C 215.536 52.511,215.207 52.732,215.066 53.270 C 214.897 53.916,215.010 54.038,215.627 53.877 C 216.621 53.617,216.607 54.027,215.584 55.125 L 214.769 56.000 215.631 56.000 C 216.335 56.000,216.458 56.183,216.302 57.000 C 216.057 58.281,216.311 58.285,216.797 57.008 C 217.415 55.381,218.554 56.192,218.519 58.233 C 218.514 58.472,218.746 58.667,219.034 58.667 C 219.429 58.667,219.454 58.475,219.137 57.882 C 218.826 57.301,218.852 57.015,219.240 56.776 C 219.887 56.375,220.400 56.662,220.400 57.424 C 220.400 57.741,220.749 58.000,221.176 58.000 C 221.603 58.000,222.048 58.154,222.164 58.342 C 222.281 58.530,221.931 58.599,221.388 58.496 C 220.828 58.389,220.400 58.495,220.400 58.741 C 220.400 58.980,220.691 59.063,221.046 58.927 C 221.574 58.724,221.637 58.854,221.388 59.636 C 221.120 60.482,221.160 60.532,221.725 60.062 C 222.505 59.415,223.200 59.774,223.200 60.824 C 223.200 61.538,222.620 61.793,221.346 61.640 C 221.096 61.610,220.783 61.868,220.650 62.214 C 220.485 62.645,220.564 62.745,220.905 62.532 C 221.894 61.915,222.800 61.996,222.814 62.703 C 222.827 63.312,222.889 63.300,223.314 62.600 C 223.581 62.160,224.070 61.752,224.400 61.694 C 224.854 61.614,224.827 61.724,224.291 62.145 C 223.618 62.673,223.624 62.713,224.391 62.914 C 224.901 63.047,225.104 62.968,224.939 62.701 C 224.790 62.460,224.865 62.393,225.113 62.546 C 225.653 62.880,225.588 64.495,225.019 64.894 C 224.769 65.070,224.868 65.190,225.267 65.194 C 226.220 65.203,226.403 66.068,225.648 66.993 C 225.048 67.727,225.049 67.748,225.661 67.276 C 226.198 66.863,226.360 66.864,226.525 67.283 C 226.637 67.567,226.719 67.350,226.707 66.800 C 226.672 65.061,226.782 64.800,227.550 64.800 C 228.082 64.800,228.300 65.089,228.300 65.793 C 228.300 66.410,228.130 66.690,227.850 66.534 C 227.589 66.388,227.607 66.506,227.895 66.816 C 228.580 67.554,230.067 67.721,230.509 67.108 C 230.766 66.751,230.807 66.813,230.644 67.316 C 230.475 67.839,230.600 68.001,231.106 67.916 C 231.567 67.839,231.843 68.103,231.928 68.700 C 231.998 69.195,232.236 69.600,232.456 69.600 C 232.677 69.600,232.574 69.883,232.229 70.229 C 231.883 70.574,231.611 71.159,231.625 71.529 C 231.643 72.009,231.754 71.944,232.012 71.300 C 232.211 70.805,232.605 70.403,232.887 70.406 C 233.246 70.410,233.220 70.526,232.802 70.790 C 232.289 71.115,232.317 71.254,233.002 71.771 C 233.678 72.282,233.698 72.377,233.135 72.387 C 232.770 72.394,232.511 72.674,232.560 73.010 C 232.671 73.765,234.191 74.875,234.581 74.486 C 234.738 74.329,235.032 74.177,235.233 74.150 C 235.435 74.123,235.700 74.078,235.822 74.050 C 235.945 74.022,235.540 73.552,234.922 73.004 L 233.800 72.008 235.072 72.087 C 235.772 72.130,236.336 72.264,236.325 72.383 C 236.206 73.697,236.516 74.505,237.211 74.687 C 237.764 74.831,237.952 75.122,237.801 75.597 C 237.655 76.058,237.923 76.519,238.590 76.957 C 239.565 77.595,239.974 77.360,239.245 76.580 C 239.050 76.371,239.038 75.840,239.217 75.400 C 239.397 74.960,239.556 74.836,239.572 75.124 C 239.587 75.412,239.768 75.544,239.972 75.417 C 240.177 75.291,240.458 75.370,240.596 75.593 C 240.734 75.817,240.604 76.000,240.308 76.000 C 239.982 76.000,239.775 76.436,239.784 77.100 C 239.796 77.951,239.633 78.172,239.065 78.074 C 238.467 77.972,238.381 78.121,238.606 78.874 C 238.866 79.744,238.848 79.755,238.314 79.056 C 237.765 78.336,237.721 78.336,237.019 79.038 C 236.499 79.558,236.435 79.812,236.793 79.931 C 237.068 80.023,237.449 79.851,237.640 79.549 C 237.996 78.988,238.211 79.587,238.019 80.600 C 237.977 80.820,238.172 80.775,238.451 80.500 C 239.302 79.664,239.998 79.930,240.025 81.100 C 240.050 82.157,240.065 82.165,240.412 81.300 C 240.611 80.805,240.945 80.400,241.154 80.400 C 241.363 80.400,241.849 80.279,242.233 80.132 C 242.675 79.963,242.835 80.019,242.670 80.287 C 242.526 80.519,242.711 80.955,243.079 81.255 C 243.661 81.728,243.717 81.712,243.500 81.133 C 243.356 80.747,243.478 80.379,243.790 80.259 C 244.211 80.098,244.255 80.311,243.990 81.234 C 243.783 81.956,243.797 82.325,244.026 82.184 C 244.232 82.057,244.400 82.323,244.400 82.776 C 244.400 83.499,244.971 83.803,246.060 83.661 C 246.203 83.642,246.431 84.071,246.568 84.613 C 246.704 85.156,246.992 85.600,247.208 85.600 C 247.722 85.600,247.713 84.917,247.193 84.596 C 246.970 84.458,246.896 84.168,247.029 83.953 C 247.181 83.706,247.480 83.735,247.836 84.030 C 248.588 84.654,248.547 85.200,247.700 85.843 C 247.052 86.335,247.067 86.375,247.900 86.387 C 248.428 86.395,248.800 86.648,248.800 87.000 C 248.800 87.330,248.980 87.600,249.200 87.600 C 249.420 87.600,249.600 87.831,249.600 88.114 C 249.600 88.396,250.163 88.960,250.851 89.366 C 251.767 89.907,252.053 89.957,251.919 89.553 C 251.819 89.249,251.301 88.773,250.768 88.495 C 249.842 88.011,249.863 87.996,251.238 88.133 C 252.978 88.306,253.600 88.652,253.600 89.447 C 253.600 89.777,253.417 89.934,253.193 89.796 C 252.970 89.658,252.891 89.377,253.017 89.172 C 253.144 88.968,252.991 88.800,252.679 88.800 C 251.868 88.800,252.165 90.836,253.074 91.515 C 253.473 91.813,253.761 92.207,253.712 92.391 C 253.610 92.783,254.383 92.713,255.100 92.265 C 255.694 91.894,256.402 92.254,256.394 92.924 C 256.390 93.236,256.267 93.209,256.037 92.847 C 255.745 92.386,255.530 92.408,254.744 92.984 C 253.806 93.670,253.806 93.672,254.697 93.411 C 255.407 93.203,255.544 93.280,255.353 93.778 C 255.177 94.238,255.286 94.342,255.755 94.162 C 256.110 94.026,256.400 94.114,256.400 94.357 C 256.400 94.601,256.085 94.803,255.700 94.806 C 255.116 94.811,255.097 94.873,255.585 95.182 C 255.994 95.441,255.658 95.545,254.466 95.529 C 253.528 95.516,252.650 95.617,252.514 95.753 C 252.302 95.965,255.196 96.196,256.119 96.041 C 256.294 96.012,256.408 96.215,256.372 96.494 C 256.335 96.772,256.327 97.675,256.353 98.500 C 256.420 100.626,257.200 100.371,257.200 98.224 C 257.200 97.247,257.380 96.336,257.600 96.200 C 257.820 96.064,258.000 96.313,258.000 96.753 C 258.000 97.193,258.211 97.683,258.468 97.842 C 258.785 98.038,258.851 97.911,258.673 97.445 C 258.526 97.062,258.573 96.860,258.780 96.988 C 258.984 97.114,259.331 96.898,259.551 96.508 C 259.863 95.955,260.044 95.909,260.378 96.297 C 260.614 96.570,260.687 96.706,260.540 96.600 C 260.147 96.315,259.172 97.231,259.428 97.645 C 259.772 98.201,260.482 98.060,260.159 97.500 C 259.992 97.210,260.024 97.140,260.236 97.333 C 260.436 97.517,260.623 97.832,260.650 98.033 C 260.678 98.235,260.745 98.490,260.800 98.600 C 260.932 98.864,261.088 99.498,261.150 100.024 C 261.178 100.257,261.383 100.334,261.607 100.196 C 261.830 100.058,261.909 99.777,261.783 99.572 C 261.656 99.368,261.763 99.200,262.019 99.200 C 262.276 99.200,262.384 99.464,262.260 99.787 C 261.871 100.801,262.895 100.970,263.665 100.019 C 264.069 99.520,264.400 99.301,264.400 99.532 C 264.400 99.763,264.203 100.075,263.962 100.223 C 263.722 100.372,263.607 100.923,263.707 101.447 C 263.896 102.438,263.419 102.774,263.064 101.900 C 262.913 101.529,262.775 101.519,262.530 101.860 C 262.349 102.112,261.750 102.403,261.200 102.505 C 260.162 102.698,261.432 102.870,264.090 102.897 C 264.690 102.904,265.084 103.064,264.966 103.254 C 264.849 103.444,264.911 103.600,265.105 103.600 C 265.299 103.600,265.500 104.541,265.552 105.691 C 265.667 108.203,266.000 108.804,266.000 106.499 C 266.000 104.666,266.310 103.600,266.843 103.600 C 267.039 103.600,267.200 103.864,267.200 104.187 C 267.200 104.566,267.449 104.695,267.900 104.550 C 268.449 104.373,268.480 104.410,268.042 104.722 C 267.676 104.982,267.594 105.374,267.805 105.860 C 267.982 106.267,268.086 106.843,268.036 107.140 C 267.986 107.445,268.140 107.561,268.390 107.406 C 268.639 107.252,268.717 106.755,268.567 106.266 C 268.227 105.161,268.580 105.486,269.375 107.011 C 269.757 107.744,269.996 107.941,269.998 107.524 C 269.999 107.152,270.181 106.735,270.403 106.598 C 270.869 106.310,272.086 107.381,271.714 107.752 C 271.578 107.889,271.657 108.000,271.891 108.000 C 272.124 108.000,272.418 107.730,272.545 107.400 C 272.671 107.070,272.971 106.800,273.211 106.800 C 273.451 106.800,273.544 106.968,273.417 107.172 C 273.291 107.377,273.370 107.658,273.593 107.796 C 273.817 107.934,274.014 107.722,274.032 107.324 C 274.050 106.904,274.148 106.810,274.265 107.100 C 274.555 107.820,275.111 107.715,275.324 106.900 C 275.498 106.233,275.509 106.233,275.554 106.900 C 275.590 107.449,275.966 107.601,277.300 107.603 C 278.235 107.604,280.215 107.720,281.700 107.861 C 284.294 108.106,284.400 108.081,284.400 107.234 C 284.400 106.739,284.578 106.463,284.807 106.604 C 285.030 106.742,285.091 107.053,284.941 107.296 C 284.766 107.579,284.906 107.645,285.334 107.481 C 285.714 107.335,286.000 107.420,286.000 107.679 C 286.000 107.929,286.135 107.998,286.300 107.833 C 286.465 107.668,286.600 107.338,286.600 107.100 C 286.600 106.862,286.825 106.592,287.100 106.500 C 287.433 106.389,287.511 106.567,287.332 107.032 C 287.159 107.484,287.218 107.636,287.498 107.463 C 287.736 107.316,288.023 107.421,288.134 107.698 C 288.246 107.974,288.351 107.833,288.368 107.385 C 288.390 106.830,288.687 106.556,289.300 106.526 C 289.795 106.501,289.975 106.568,289.700 106.674 C 289.425 106.780,289.200 107.042,289.200 107.257 C 289.200 107.472,289.380 107.536,289.600 107.400 C 289.820 107.264,290.000 107.354,290.000 107.600 C 290.000 107.846,290.172 107.941,290.383 107.811 C 290.593 107.681,290.664 107.310,290.540 106.987 C 290.416 106.664,290.514 106.400,290.757 106.400 C 291.001 106.400,291.213 106.715,291.228 107.100 C 291.252 107.694,291.305 107.678,291.574 107.000 C 291.749 106.560,291.747 106.143,291.569 106.074 C 291.391 106.005,291.349 105.645,291.476 105.274 C 291.650 104.769,291.550 104.800,291.077 105.400 C 290.453 106.191,290.447 106.190,290.508 105.300 C 290.550 104.693,290.836 104.390,291.385 104.368 C 291.833 104.351,291.984 104.249,291.720 104.142 C 291.383 104.005,291.351 103.656,291.610 102.973 C 291.840 102.368,291.837 102.000,291.603 102.000 C 291.395 102.000,291.323 101.746,291.442 101.435 C 291.569 101.103,291.358 100.792,290.929 100.681 C 290.349 100.531,290.386 100.483,291.108 100.446 C 292.054 100.398,292.394 90.804,291.451 90.801 C 291.259 90.801,291.313 90.546,291.570 90.236 C 291.896 89.843,291.909 89.591,291.613 89.408 C 291.379 89.263,291.314 88.932,291.470 88.672 C 291.676 88.330,291.588 88.334,291.151 88.687 C 290.639 89.102,290.553 88.988,290.575 87.927 C 290.592 87.069,290.841 86.596,291.373 86.409 C 292.418 86.043,291.478 85.458,290.396 85.801 C 289.923 85.951,289.600 85.871,289.600 85.603 C 289.600 85.356,289.780 85.264,290.000 85.400 C 290.220 85.536,290.394 85.322,290.387 84.924 C 290.375 84.296,290.269 84.325,289.590 85.141 C 288.899 85.969,288.775 86.001,288.547 85.407 C 288.341 84.868,288.218 84.840,287.937 85.266 C 287.655 85.695,287.506 85.665,287.181 85.114 C 286.862 84.574,286.566 84.509,285.781 84.807 C 284.991 85.108,284.622 85.022,283.993 84.393 C 283.557 83.957,283.402 83.600,283.649 83.600 C 283.959 83.600,283.944 83.415,283.600 83.000 C 283.256 82.585,283.241 82.400,283.551 82.400 C 284.092 82.400,284.154 80.943,283.628 80.617 C 283.423 80.491,283.339 79.926,283.441 79.362 C 283.593 78.523,283.498 78.378,282.913 78.560 C 282.521 78.682,281.930 78.589,281.600 78.353 C 281.078 77.980,281.082 77.950,281.636 78.125 C 282.757 78.479,283.201 77.820,282.170 77.333 C 281.535 77.034,281.200 77.018,281.200 77.287 C 281.200 77.514,280.898 77.452,280.525 77.149 C 279.934 76.668,279.883 76.687,280.113 77.300 C 280.257 77.685,280.201 78.000,279.987 78.000 C 279.628 78.000,279.437 77.421,279.555 76.692 C 279.583 76.522,279.154 76.497,278.603 76.635 C 277.902 76.811,277.598 76.723,277.594 76.343 C 277.590 76.015,277.471 75.958,277.294 76.200 C 276.836 76.823,275.906 76.895,275.560 76.335 C 275.387 76.055,275.431 75.604,275.657 75.331 C 276.145 74.743,275.779 74.000,275.003 74.000 C 274.635 74.000,274.513 73.670,274.634 73.000 C 274.802 72.073,274.482 71.787,273.470 71.963 C 273.289 71.994,273.250 71.842,273.384 71.625 C 273.538 71.377,273.983 71.366,274.584 71.594 C 275.455 71.925,275.523 71.868,275.356 70.947 C 275.234 70.274,275.321 70.028,275.616 70.210 C 275.870 70.367,275.833 70.118,275.530 69.628 C 275.116 68.960,274.972 68.907,274.871 69.387 C 274.800 69.724,274.485 70.000,274.171 70.000 C 273.857 70.000,273.600 70.210,273.600 70.467 C 273.600 70.723,273.496 70.829,273.368 70.701 C 273.240 70.574,273.447 69.995,273.827 69.415 C 274.360 68.601,274.390 68.388,273.959 68.480 C 273.651 68.546,273.284 68.870,273.142 69.200 C 272.944 69.662,272.788 69.569,272.467 68.800 C 272.172 68.091,272.043 68.004,272.025 68.500 C 271.999 69.228,271.547 69.414,271.038 68.905 C 270.571 68.438,269.451 68.552,268.842 69.130 C 268.080 69.852,267.668 69.132,267.743 67.209 C 267.788 66.038,267.667 65.761,267.167 65.893 C 266.800 65.989,266.533 65.810,266.533 65.467 C 266.533 65.142,266.728 64.951,266.967 65.042 C 267.210 65.135,267.438 64.664,267.487 63.965 C 267.565 62.855,267.503 62.781,266.910 63.262 C 266.400 63.675,266.319 63.680,266.558 63.282 C 266.729 62.998,266.658 62.511,266.400 62.200 C 266.142 61.889,266.047 61.447,266.189 61.218 C 266.331 60.988,266.159 60.800,265.806 60.800 C 265.430 60.800,265.214 61.072,265.282 61.459 C 265.347 61.821,265.130 62.194,264.800 62.289 C 264.324 62.425,264.310 62.384,264.734 62.086 C 265.273 61.707,264.278 60.967,263.470 61.146 C 263.289 61.187,263.264 61.021,263.414 60.777 C 263.601 60.476,263.131 60.357,261.944 60.404 C 258.872 60.528,258.963 60.637,259.930 58.000 C 260.125 57.467,260.066 57.467,259.398 58.000 C 258.795 58.481,258.714 58.488,258.989 58.032 C 259.246 57.606,259.165 57.528,258.666 57.719 C 257.809 58.048,257.827 57.921,258.800 56.800 C 259.743 55.713,259.852 54.400,259.000 54.400 C 258.670 54.400,258.395 54.625,258.388 54.900 C 258.381 55.176,258.193 55.086,257.966 54.697 C 257.647 54.149,257.389 54.085,256.788 54.407 C 256.165 54.740,256.063 54.702,256.252 54.209 C 256.380 53.874,256.286 53.600,256.043 53.600 C 255.799 53.600,255.597 53.285,255.594 52.900 C 255.589 52.302,255.531 52.287,255.200 52.800 C 254.987 53.130,254.809 53.243,254.806 53.051 C 254.803 52.859,254.548 52.912,254.239 53.168 C 253.808 53.525,253.635 53.514,253.491 53.117 C 253.341 52.701,253.118 52.711,252.352 53.164 C 251.495 53.672,251.452 53.666,251.921 53.098 C 252.362 52.565,252.320 52.428,251.647 52.215 C 250.714 51.919,250.662 50.406,251.585 50.388 C 252.081 50.378,252.063 50.296,251.492 49.963 C 251.102 49.736,250.888 49.382,251.015 49.175 C 251.143 48.969,251.057 48.800,250.824 48.800 C 250.591 48.800,250.400 48.626,250.400 48.413 C 250.400 48.199,250.670 48.129,251.000 48.255 C 251.330 48.382,251.600 48.298,251.600 48.070 C 251.600 47.841,251.257 47.545,250.837 47.412 C 250.417 47.279,249.973 46.906,249.850 46.585 C 249.542 45.784,249.989 44.746,250.504 45.064 C 250.766 45.226,250.803 45.128,250.601 44.801 C 250.347 44.391,250.166 44.432,249.758 44.990 C 249.452 45.409,248.976 45.600,248.598 45.455 C 248.227 45.312,248.061 45.375,248.203 45.605 C 248.337 45.822,248.257 46.000,248.024 46.000 C 247.791 46.000,247.600 45.640,247.600 45.200 C 247.600 44.667,247.333 44.400,246.800 44.400 C 246.360 44.400,246.000 44.561,246.000 44.757 C 246.000 44.954,245.726 45.220,245.391 45.348 C 244.894 45.539,244.859 45.436,245.205 44.791 C 245.706 43.854,245.486 43.771,244.669 44.588 C 244.151 45.106,244.049 45.049,243.814 44.113 C 243.667 43.528,243.244 42.813,242.873 42.524 C 242.263 42.047,242.275 42.023,243.000 42.263 C 243.440 42.408,243.667 42.380,243.503 42.201 C 243.340 42.021,243.383 41.661,243.599 41.402 C 243.873 41.071,243.698 40.774,243.016 40.409 C 241.480 39.587,241.442 38.830,242.904 38.194 C 243.897 37.763,244.005 37.628,243.367 37.616 C 242.908 37.607,242.412 37.721,242.264 37.870 C 241.532 38.601,240.087 38.223,240.406 37.384 C 240.822 36.289,239.268 36.241,238.461 37.323 C 237.764 38.259,235.749 38.106,235.911 37.130 C 235.971 36.762,235.836 36.346,235.611 36.207 C 235.385 36.067,235.200 35.773,235.200 35.553 C 235.200 35.333,235.380 35.264,235.600 35.400 C 235.820 35.536,236.000 35.451,236.000 35.211 C 236.000 34.971,235.730 34.671,235.400 34.545 C 235.070 34.418,234.800 34.143,234.800 33.934 C 234.800 33.724,234.980 33.664,235.200 33.800 C 235.420 33.936,235.600 33.767,235.600 33.424 C 235.600 33.081,235.420 32.800,235.200 32.800 C 234.569 32.800,234.734 31.600,235.400 31.345 C 236.329 30.988,236.108 30.447,235.137 30.700 C 234.495 30.868,234.358 30.792,234.599 30.401 C 234.818 30.047,234.768 29.973,234.446 30.172 C 234.179 30.336,234.071 30.851,234.200 31.334 C 234.425 32.169,234.414 32.167,233.896 31.287 C 233.600 30.786,233.233 30.501,233.079 30.654 C 232.926 30.808,232.800 30.737,232.800 30.496 C 232.800 30.255,233.025 29.982,233.300 29.888 C 233.575 29.794,233.372 29.790,232.848 29.879 C 232.079 30.010,231.934 29.897,232.092 29.292 C 232.262 28.641,232.071 28.552,230.644 28.616 C 229.740 28.657,228.771 28.509,228.491 28.288 C 228.105 27.984,228.049 28.061,228.259 28.609 C 228.459 29.131,228.396 29.245,228.030 29.018 C 227.743 28.841,227.594 28.222,227.686 27.594 C 227.803 26.797,227.701 26.540,227.325 26.684 C 226.582 26.969,226.673 26.381,227.461 25.805 C 228.131 25.315,227.858 24.193,227.172 24.617 C 226.968 24.744,226.800 24.670,226.800 24.453 C 226.800 24.236,227.115 23.964,227.500 23.848 C 227.885 23.732,227.545 23.680,226.745 23.733 C 225.645 23.805,225.343 23.694,225.504 23.274 C 225.621 22.969,225.465 22.560,225.158 22.366 C 224.725 22.092,224.718 22.011,225.124 22.006 C 225.412 22.003,225.522 21.797,225.368 21.548 C 225.197 21.271,225.304 21.174,225.644 21.298 C 225.950 21.409,226.151 21.716,226.090 21.980 C 226.029 22.244,226.181 22.335,226.428 22.182 C 227.344 21.616,225.771 20.789,223.689 20.743 C 222.549 20.717,221.714 20.539,221.832 20.348 C 222.231 19.703,221.637 19.994,220.866 20.821 C 220.089 21.655,219.219 20.941,219.822 19.964 C 219.946 19.764,219.692 19.600,219.257 19.600 C 218.309 19.600,218.301 16.962,219.248 16.362 C 220.157 15.786,219.247 15.955,218.019 16.590 C 216.727 17.258,215.939 16.437,216.837 15.356 C 217.293 14.806,215.563 13.733,214.600 13.969 C 214.380 14.023,214.329 13.938,214.486 13.781 C 215.011 13.256,214.001 11.901,213.435 12.371 C 213.155 12.603,212.808 12.675,212.663 12.530 C 212.518 12.385,212.400 12.477,212.400 12.733 C 212.400 12.990,212.220 13.200,212.000 13.200 C 211.780 13.200,211.628 13.065,211.662 12.900 C 211.696 12.735,211.426 11.931,211.062 11.113 C 210.313 9.430,210.213 8.637,210.795 8.997 C 211.577 9.480,210.634 7.793,209.717 7.068 C 209.209 6.665,208.873 6.206,208.971 6.046 C 209.070 5.887,208.577 5.547,207.875 5.290 C 206.676 4.852,206.648 4.862,207.400 5.460 C 208.166 6.068,208.149 6.082,207.000 5.787 C 206.340 5.618,205.498 5.468,205.129 5.454 C 204.761 5.440,204.558 5.268,204.679 5.071 C 204.876 4.754,204.048 4.916,202.500 5.498 C 202.225 5.601,202.000 5.396,202.000 5.043 C 202.000 4.667,201.668 4.400,201.200 4.400 C 200.756 4.400,200.400 4.667,200.400 5.000 C 200.400 5.357,200.036 5.598,199.500 5.594 C 198.838 5.589,198.745 5.496,199.146 5.242 C 199.507 5.013,199.136 4.888,198.052 4.873 C 196.929 4.857,196.277 5.063,195.987 5.525 C 195.615 6.115,195.589 6.099,195.776 5.399 C 195.955 4.731,195.793 4.596,194.796 4.582 C 193.982 4.571,193.597 4.764,193.590 5.183 M191.276 5.919 C 190.302 6.070,190.138 6.319,189.837 8.108 C 189.728 8.753,189.810 9.118,190.032 8.981 C 190.241 8.851,190.309 8.577,190.183 8.372 C 190.056 8.168,190.123 8.000,190.332 8.000 C 190.540 8.000,190.686 7.685,190.656 7.300 C 190.621 6.861,190.861 6.621,191.300 6.656 C 191.685 6.686,192.000 6.540,192.000 6.332 C 192.000 6.123,192.168 6.056,192.372 6.183 C 192.577 6.309,192.839 6.260,192.955 6.073 C 193.175 5.716,192.806 5.683,191.276 5.919 M216.213 13.341 C 215.514 13.852,215.529 13.895,216.493 14.137 C 217.623 14.421,218.344 15.600,217.387 15.600 C 217.064 15.600,216.800 15.780,216.800 16.000 C 216.800 16.595,217.573 16.484,218.268 15.789 C 218.965 15.092,218.379 14.000,217.308 14.000 C 216.945 14.000,216.804 13.767,216.945 13.400 C 217.227 12.663,217.149 12.657,216.213 13.341 M182.088 14.176 C 181.441 14.858,181.314 15.223,181.650 15.431 C 181.948 15.615,182.018 15.552,181.838 15.262 C 181.669 14.988,181.807 14.800,182.176 14.800 C 182.519 14.800,182.800 14.519,182.800 14.176 C 182.800 13.807,182.988 13.669,183.262 13.838 C 183.548 14.015,183.615 13.948,183.438 13.662 C 183.077 13.077,183.159 13.046,182.088 14.176 M175.630 23.310 C 175.581 23.788,175.032 23.696,174.860 23.180 C 174.772 22.916,174.916 22.772,175.180 22.860 C 175.444 22.948,175.647 23.151,175.630 23.310 M236.900 36.700 C 236.126 36.958,236.310 37.600,237.157 37.600 C 237.574 37.600,238.007 37.360,238.119 37.067 C 238.324 36.533,237.839 36.387,236.900 36.700 M183.783 52.827 C 183.638 53.062,183.897 53.353,184.360 53.474 C 185.410 53.748,185.452 54.211,184.432 54.288 C 184.010 54.319,183.560 54.071,183.431 53.737 C 183.205 53.148,183.438 52.400,183.847 52.400 C 183.957 52.400,183.928 52.592,183.783 52.827 M257.316 53.124 C 256.963 53.345,257.027 53.550,257.552 53.877 C 258.040 54.182,258.453 54.197,258.836 53.926 C 259.289 53.603,259.267 53.567,258.725 53.740 C 258.331 53.866,257.998 53.720,257.925 53.388 C 257.851 53.055,257.601 52.946,257.316 53.124 M217.757 54.633 C 218.195 55.773,218.012 56.168,217.413 55.376 C 217.090 54.949,216.820 54.465,216.813 54.300 C 216.789 53.741,217.513 53.996,217.757 54.633 M217.125 55.575 C 217.225 55.875,217.075 56.025,216.775 55.925 C 216.486 55.829,216.171 55.514,216.075 55.225 C 215.975 54.925,216.125 54.775,216.425 54.875 C 216.714 54.971,217.029 55.286,217.125 55.575 M181.839 55.506 C 182.323 55.830,182.437 57.200,181.980 57.200 C 181.822 57.200,181.594 56.822,181.474 56.360 C 181.334 55.825,181.076 55.629,180.765 55.822 C 180.453 56.015,180.379 55.957,180.562 55.662 C 180.890 55.131,181.218 55.091,181.839 55.506 M175.525 62.357 C 175.456 62.773,175.760 63.538,176.200 64.057 L 177.000 65.000 176.057 64.200 C 175.538 63.760,174.737 63.463,174.276 63.539 C 173.586 63.653,173.522 63.576,173.915 63.102 C 174.178 62.785,174.260 62.379,174.097 62.199 C 173.933 62.019,174.013 61.994,174.272 62.142 C 174.532 62.291,174.858 62.230,174.996 62.007 C 175.396 61.359,175.661 61.534,175.525 62.357 M168.249 68.526 C 168.880 68.284,169.019 69.417,168.405 69.797 C 168.170 69.942,168.116 69.763,168.273 69.355 C 168.438 68.923,168.379 68.766,168.113 68.930 C 167.881 69.074,167.454 68.878,167.165 68.496 C 166.729 67.919,166.729 67.880,167.168 68.269 C 167.459 68.527,167.946 68.642,168.249 68.526 M230.400 68.935 C 230.400 69.327,230.232 69.544,230.028 69.417 C 229.823 69.291,229.539 69.374,229.398 69.603 C 229.256 69.832,229.371 69.970,229.652 69.910 C 229.933 69.849,230.194 70.025,230.232 70.300 C 230.269 70.575,230.322 70.991,230.350 71.224 C 230.378 71.457,230.599 71.524,230.843 71.374 C 231.086 71.223,231.131 70.987,230.943 70.850 C 230.437 70.481,230.337 69.600,230.800 69.600 C 231.020 69.600,231.200 69.810,231.200 70.067 C 231.200 70.323,231.308 70.425,231.441 70.293 C 231.573 70.160,231.393 69.640,231.041 69.137 C 230.502 68.367,230.400 68.335,230.400 68.935 M167.207 70.196 C 167.393 70.081,167.675 70.198,167.834 70.455 C 168.028 70.769,167.949 70.816,167.594 70.596 C 167.213 70.361,167.133 70.450,167.312 70.914 C 167.494 71.389,167.389 71.494,166.914 71.312 C 166.450 71.133,166.361 71.213,166.596 71.594 C 166.816 71.949,166.769 72.028,166.455 71.834 C 166.198 71.675,166.091 71.377,166.217 71.172 C 166.344 70.968,166.235 70.800,165.975 70.800 C 165.637 70.800,165.654 70.616,166.036 70.156 C 166.374 69.750,166.626 69.677,166.720 69.959 C 166.801 70.204,167.021 70.311,167.207 70.196 M164.930 72.113 C 164.766 72.379,164.923 72.438,165.355 72.273 C 165.763 72.116,165.942 72.170,165.797 72.405 C 165.417 73.019,164.284 72.880,164.526 72.249 C 164.642 71.946,164.527 71.459,164.269 71.168 C 163.880 70.729,163.919 70.729,164.496 71.165 C 164.878 71.454,165.074 71.881,164.930 72.113 M126.381 72.123 C 126.855 72.741,126.853 72.827,126.368 72.723 C 125.647 72.567,125.189 71.942,125.466 71.492 C 125.584 71.302,125.713 71.204,125.753 71.273 C 125.793 71.343,126.076 71.725,126.381 72.123 M234.600 73.200 C 235.057 73.939,234.402 74.408,233.607 73.912 C 233.192 73.652,232.941 73.296,233.049 73.120 C 233.327 72.671,234.304 72.721,234.600 73.200 M160.640 76.695 C 160.616 77.362,160.366 77.807,160.000 77.833 C 159.670 77.857,159.611 77.804,159.869 77.715 C 160.127 77.626,160.259 77.114,160.161 76.577 C 160.064 76.039,160.141 75.600,160.333 75.600 C 160.524 75.600,160.663 76.093,160.640 76.695 M160.800 78.838 C 160.800 79.074,160.579 79.193,160.309 79.103 C 159.651 78.884,158.852 79.670,159.093 80.298 C 159.199 80.574,159.080 80.800,158.829 80.800 C 158.497 80.800,158.438 78.715,158.767 78.587 C 159.376 78.351,160.800 78.526,160.800 78.838 M162.185 79.224 C 161.873 79.730,162.191 80.122,163.012 80.243 C 163.753 80.352,163.757 80.100,163.026 79.368 C 162.637 78.980,162.365 78.933,162.185 79.224 M158.000 79.813 C 158.000 80.605,156.876 81.036,156.302 80.462 C 155.977 80.137,156.092 80.064,156.729 80.186 C 157.299 80.296,157.600 80.154,157.600 79.777 C 157.600 79.460,157.690 79.200,157.800 79.200 C 157.910 79.200,158.000 79.476,158.000 79.813 M240.800 81.600 C 240.800 82.040,241.025 82.403,241.300 82.406 C 241.639 82.410,241.610 82.532,241.212 82.784 C 240.888 82.989,240.756 83.289,240.918 83.452 C 241.548 84.081,242.149 82.862,241.563 82.142 C 241.067 81.532,241.081 81.480,241.680 81.705 C 242.165 81.887,242.296 81.794,242.137 81.380 C 241.805 80.514,240.800 80.680,240.800 81.600 M159.094 82.239 C 158.953 82.380,159.087 82.744,159.390 83.048 C 160.122 83.779,160.350 83.744,160.230 82.922 C 160.122 82.191,159.510 81.823,159.094 82.239 M162.239 82.337 C 161.854 82.960,162.585 83.528,163.082 82.992 C 163.461 82.584,163.442 82.425,162.995 82.253 C 162.682 82.133,162.342 82.171,162.239 82.337 M150.400 85.005 C 150.400 85.044,150.054 85.389,149.630 85.773 C 148.997 86.346,148.577 85.612,149.169 84.967 C 149.231 84.899,150.400 84.936,150.400 85.005 M249.754 85.500 C 249.889 85.885,250.110 86.439,250.244 86.731 C 250.443 87.166,250.341 87.170,249.674 86.754 C 249.227 86.474,248.886 85.921,248.916 85.523 C 248.985 84.603,249.433 84.591,249.754 85.500 M152.006 86.300 C 152.011 86.898,152.069 86.913,152.400 86.400 C 152.731 85.887,152.789 85.902,152.794 86.500 C 152.802 87.443,152.128 87.387,151.600 86.400 C 151.310 85.858,151.305 85.600,151.586 85.600 C 151.814 85.600,152.003 85.915,152.006 86.300 M246.400 87.176 C 246.400 87.409,246.660 87.600,246.977 87.600 C 247.295 87.600,247.835 88.000,248.177 88.489 C 248.520 88.978,248.800 89.186,248.800 88.951 C 248.800 88.528,247.865 87.586,246.900 87.037 C 246.625 86.881,246.400 86.943,246.400 87.176 M151.200 88.414 C 151.200 88.626,150.885 88.797,150.500 88.794 C 149.902 88.789,149.887 88.731,150.400 88.400 C 150.913 88.069,150.898 88.011,150.300 88.006 C 149.915 88.003,149.600 87.814,149.600 87.586 C 149.600 87.305,149.858 87.310,150.400 87.600 C 150.840 87.835,151.200 88.202,151.200 88.414 M246.800 88.314 C 246.800 88.581,246.999 88.800,247.243 88.800 C 247.499 88.800,247.574 89.094,247.419 89.500 C 247.205 90.063,247.251 90.102,247.659 89.697 C 248.068 89.292,248.034 89.062,247.483 88.511 C 247.056 88.084,246.800 88.010,246.800 88.314 M148.347 90.600 C 148.314 91.272,148.278 91.288,148.124 90.700 C 148.024 90.315,147.780 90.000,147.583 90.000 C 147.386 90.000,147.335 89.715,147.468 89.366 C 147.784 88.545,148.407 89.419,148.347 90.600 M153.317 89.380 C 152.936 89.814,152.959 90.034,153.426 90.422 C 153.920 90.832,153.972 90.793,153.740 90.187 C 153.516 89.605,153.605 89.516,154.187 89.740 C 154.801 89.975,154.835 89.924,154.408 89.409 C 153.813 88.693,153.918 88.696,153.317 89.380 M145.600 92.092 C 145.600 92.335,145.474 92.408,145.321 92.254 C 145.167 92.101,144.830 92.371,144.571 92.855 L 144.100 93.734 144.100 92.748 C 144.100 92.071,144.335 91.745,144.850 91.706 C 145.263 91.675,145.600 91.849,145.600 92.092 M258.098 94.200 C 258.383 94.472,258.428 94.441,258.238 94.105 C 258.054 93.778,258.160 93.686,258.549 93.836 C 259.059 94.032,259.051 94.165,258.488 94.823 C 257.691 95.754,257.193 95.181,257.253 93.400 C 257.280 92.569,257.352 92.446,257.485 93.000 C 257.591 93.440,257.867 93.980,258.098 94.200 M143.436 94.103 C 143.798 94.465,142.489 95.702,142.039 95.424 C 141.755 95.249,141.715 94.272,141.969 93.735 C 142.044 93.578,143.202 93.869,143.436 94.103 M141.195 96.412 C 140.472 96.869,139.478 96.921,139.746 96.487 C 139.852 96.315,140.356 96.143,140.865 96.105 C 141.586 96.051,141.659 96.118,141.195 96.412 M144.640 96.735 C 144.513 96.941,144.661 97.318,144.969 97.574 C 145.300 97.849,145.623 97.886,145.760 97.665 C 145.887 97.459,145.739 97.082,145.431 96.826 C 145.100 96.551,144.777 96.514,144.640 96.735 M254.618 96.772 C 254.467 97.014,254.177 97.109,253.972 96.983 C 253.768 96.856,253.600 96.924,253.600 97.134 C 253.600 97.703,254.594 97.974,255.233 97.580 C 255.649 97.322,255.677 97.117,255.342 96.782 C 255.014 96.454,254.816 96.451,254.618 96.772 M266.948 101.678 C 267.502 102.038,266.991 102.565,266.427 102.216 C 266.192 102.071,266.014 101.558,266.032 101.076 C 266.053 100.480,266.136 100.392,266.292 100.800 C 266.417 101.130,266.713 101.525,266.948 101.678 M134.262 101.783 C 134.132 102.122,133.749 102.400,133.413 102.400 C 132.894 102.400,132.908 102.287,133.500 101.667 C 134.298 100.831,134.609 100.879,134.262 101.783 M265.200 101.200 C 265.200 101.420,264.930 101.600,264.600 101.600 C 264.270 101.600,264.000 101.420,264.000 101.200 C 264.000 100.980,264.270 100.800,264.600 100.800 C 264.930 100.800,265.200 100.980,265.200 101.200 " stroke="none" fill="#fcfcfc" fill-rule="evenodd"></path><path id="path1" d="" stroke="none" fill="#100fcfc" fill-rule="evenodd"></path><path id="path2" d="" stroke="none" fill="#100fcfc" fill-rule="evenodd"></path><path id="path3" d="" stroke="none" fill="#100fcfc" fill-rule="evenodd"></path><path id="path4" d="" stroke="none" fill="#100fcfc" fill-rule="evenodd"></path><path id="path5" d="" stroke="none" fill="#100fcfc" fill-rule="evenodd"></path><path id="path6" d="" stroke="none" fill="#100fcfc" fill-rule="evenodd"></path><path id="path7" d="" stroke="none" fill="#100fcfc" fill-rule="evenodd"></path><path id="path8" d="" stroke="none" fill="#100fcfc" fill-rule="evenodd"></path></g></svg>